#!OML:ASF Y:\EmotionMaleHayes\Project 1\Capture day 1\Session 1\Male1.ASF
:FULLY-SPECIFIED
:DEGREES
1271
root 31.9568 17.1891 0.312259 1110.39 81.4606 1105.02
lowerback 9.89688 1.06734 -15.1327
upperback 5.72233 0.629868 -6.1975
thorax 0.550103 0.26796 1.83302
lowerneck -23.4416 -0.745781 -1.42778
upperneck 26.253 -0.560484 0.857333
head 12.6433 -0.201593 0.487479
rclavicle -5.56597e-015 3.18055e-015
rhumerus -58.9871 11.116 -91.3519
rradius 68.4262
rwrist -5.22551
rhand -2.33658 -29.3028
rfingers 7.12502
rthumb 23.3505 -57.9065
lclavicle -5.56597e-015 3.18055e-015
lhumerus -11.0187 -10.6759 84.2135
lradius 40.1204
lwrist -2.17874
lhand -16.3252 -25.925
lfingers 7.12502
lthumb 9.8864 3.82282
rfemur -20.7105 -12.2426 10.6044
rtibia 9.39185
rfoot -11.5092 -0.715561
rtoes 5.47707
lfemur 9.0135 4.43799 -18.1371
ltibia -2.31122
lfoot -17.1753 19.376
ltoes 8.71255
1272
root 32.0577 17.166 0.344419 1115.33 81.5904 1109.78
lowerback 9.46488 0.949386 -15.2733
upperback 5.75224 0.570474 -6.34496
thorax 0.835513 0.22521 1.76246
lowerneck -23.4644 -0.737624 -1.45088
upperneck 26.1133 -0.539652 0.84332
head 12.5916 -0.197902 0.488732
rclavicle 5.56597e-015 -4.13472e-014
rhumerus -58.9583 11.3638 -91.1437
rradius 68.5368
rwrist -5.32381
rhand -2.587 -29.2579
rfingers 7.12502
rthumb 23.1103 -57.8919
lclavicle 5.56597e-015 -4.13472e-014
lhumerus -11.2957 -10.6809 85.2912
lradius 39.0783
lwrist -3.89702
lhand -15.526 -26.3724
lfingers 7.12502
lthumb 10.6574 3.33729
rfemur -20.2046 -13.1638 10.0799
rtibia 9.36556
rfoot -11.6198 -0.607718
rtoes 3.73748
lfemur 9.17435 4.81101 -18.6338
ltibia -2.43505
lfoot -16.4114 18.9243
ltoes 4.52677
1273
root 32.1641 17.1422 0.378349 1121.17 81.6107 1115.51
lowerback 9.10038 0.847093 -15.5316
upperback 5.70902 0.502245 -6.53511
thorax 1.00909 0.18618 1.70778
lowerneck -23.3645 -0.769832 -1.41409
upperneck 25.9968 -0.609724 0.866424
head 12.5259 -0.222105 0.478705
rclavicle -3.18055e-015 1.27222e-014
rhumerus -59.0772 11.6049 -91.0251
rradius 68.5646
rwrist -5.34757
rhand -2.69315 -29.3855
rfingers 7.12502
rthumb 23.0084 -58.0322
lclavicle -3.18055e-015 1.27222e-014
lhumerus -11.7436 -10.5364 86.3119
lradius 38.1635
lwrist -5.26612
lhand -14.642 -26.3874
lfingers 7.12502
lthumb 11.51 3.27656
rfemur -19.5154 -14.4572 9.40648
rtibia 9.64063
rfoot -12.0354 -0.122965
rtoes 0.719569
lfemur 9.40533 5.10443 -19.3038
ltibia -2.48361
lfoot -16.6268 18.0862
ltoes 4.76192
1274
root 32.2453 17.1177 0.425801 1124.29 81.672 1118.49
lowerback 9.10687 0.878736 -15.5318
upperback 5.54939 0.518906 -6.61929
thorax 0.830229 0.212913 1.61736
lowerneck -22.9539 -0.519774 -0.911259
upperneck 25.7404 -0.313321 0.431503
head 12.3363 -0.100122 0.278954
rclavicle -2.62396e-014 -7.31528e-014
rhumerus -59.173 11.7 -90.8885
rradius 68.498
rwrist -5.47529
rhand -2.79119 -29.4678
rfingers 7.12502
rthumb 22.9143 -58.1262
lclavicle -2.62396e-014 -7.31528e-014
lhumerus -12.173 -10.3462 87.2544
lradius 37.1801
lwrist -6.62339
lhand -13.872 -26.1186
lfingers 7.12502
lthumb 12.2525 3.50246
rfemur -18.8757 -14.2045 9.0493
rtibia 9.27261
rfoot -12.0242 -0.811677
rtoes 0.649627
lfemur 9.46722 5.05288 -19.3809
ltibia -2.3218
lfoot -16.9972 17.6414
ltoes 4.8221
1275
root 32.3129 17.0934 0.484534 1124.36 81.9232 1118.45
lowerback 9.28304 0.986152 -15.2223
upperback 5.39482 0.60879 -6.54195
thorax 0.54376 0.27955 1.52533
lowerneck -22.9116 -0.460131 -0.651654
upperneck 25.6285 -0.224666 0.0930542
head 12.282 -0.0818345 0.121733
rclavicle -1.43125e-014 -1.1291e-013
rhumerus -59.0707 11.8307 -90.6944
rradius 68.2115
rwrist -5.60198
rhand -2.82307 -29.5247
rfingers 7.12502
rthumb 22.8838 -58.1869
lclavicle -1.43125e-014 -1.1291e-013
lhumerus -12.5995 -10.025 88.1198
lradius 36.0651
lwrist -8.4632
lhand -13.8983 -26.2308
lfingers 7.12502
lthumb 12.2272 3.39179
rfemur -18.1425 -12.5612 9.03731
rtibia 7.93078
rfoot -10.7065 -2.6765
rtoes 6.94254
lfemur 9.53733 4.73581 -18.7913
ltibia -2.15715
lfoot -17.215 17.7107
ltoes 3.88794
1276
root 32.3997 17.0679 0.538614 1125.8 82.1203 1119.85
lowerback 9.25825 1.05833 -14.9616
upperback 5.34303 0.7167 -6.53713
thorax 0.482058 0.341837 1.3825
lowerneck -23.206 -0.551604 -0.679004
upperneck 25.7179 -0.330827 0.0500677
head 12.3761 -0.138148 0.0914366
rclavicle -3.97569e-015 -2.06736e-014
rhumerus -58.8281 11.9132 -90.4533
rradius 67.785
rwrist -5.50817
rhand -2.6688 -29.5972
rfingers 7.12502
rthumb 23.0318 -58.241
lclavicle -3.97569e-015 -2.06736e-014
lhumerus -13.0432 -9.70031 88.9248
lradius 35.2356
lwrist -9.36513
lhand -13.7016 -26.0717
lfingers 7.12502
lthumb 12.4168 3.53951
rfemur -17.4885 -13.0476 9.13268
rtibia 7.16982
rfoot -7.82716 -3.79453
rtoes 7.02662
lfemur 9.795 4.39243 -18.5453
ltibia -2.12235
lfoot -17.1805 17.7729
ltoes 2.1636
